
<svg xmlns="http://www.w3.org/2000/svg" version="1.1" xmlns:xlink="http://www.w3.org/1999/xlink" preserveAspectRatio="none" x="0px" y="0px" width="300px" height="220px" viewBox="0 0 300 220">
<defs>
<filter id="Filter_1" x="-20%" y="-20%" width="140%" height="140%" color-interpolation-filters="sRGB">
<feColorMatrix in="SourceGraphic" type="matrix" values="0 0 0 0 0.8 0 0 0 0 0.8 0 0 0 0 0.8 0 0 0 0.3 0" result="result1"/>
</filter>

<filter id="Filter_2" x="-20%" y="-20%" width="140%" height="140%" color-interpolation-filters="sRGB">
<feColorMatrix in="SourceGraphic" type="matrix" values="0 0 0 0 0.8 0 0 0 0 0.4 0 0 0 0 0 0 0 0 1 0" result="result1"/>
</filter>

<g id="Symbole_1444_0_Layer0_0_FILL">
<path fill="#CCCCCC" stroke="none" d="
M 246.6 31.95
Q 246.55 28.9 245.4 26.65 244.2 24.45 242.2 23.25 240.25 22 237.7 22 235.5 22.05 233.85 22.9 232.2 23.75 231.3 25.15
L 231.3 15.8 226.4 15.8 226.4 41.7 231.3 41.7 231.3 38.95
Q 232.2 40.25 233.85 41.1 235.45 41.95 237.7 42 240.25 42 242.2 40.75 244.2 39.5 245.4 37.25 246.55 35 246.6 31.95
M 240.85 35.05
Q 240.1 36.35 238.95 37.05 237.75 37.7 236.4 37.7 235.1 37.7 233.95 37.05 232.8 36.4 232.05 35.1 231.35 33.85 231.3 32 231.35 30.15 232.05 28.9 232.8 27.6 233.95 26.95 235.1 26.3 236.4 26.3 237.75 26.3 238.95 26.95 240.1 27.6 240.85 28.85 241.55 30.1 241.55 31.95 241.55 33.75 240.85 35.05
M 209.3 22
Q 206.8 22 204.8 23.25 202.8 24.45 201.65 26.65 200.5 28.9 200.45 31.95 200.5 35 201.65 37.25 202.8 39.5 204.8 40.75 206.8 42 209.3 42 211.6 41.95 213.2 41.05 214.85 40.15 215.7 38.85
L 215.7 41.7 220.65 41.7 220.65 22.3 215.7 22.3 215.7 25.05
Q 214.85 23.8 213.25 22.95 211.65 22.05 209.3 22
M 215 28.9
Q 215.7 30.15 215.7 32 215.7 33.85 215 35.1 214.25 36.4 213.1 37.05 211.95 37.7 210.55 37.7 209.25 37.7 208.1 37.05 206.9 36.35 206.2 35.05 205.5 33.75 205.45 31.95 205.5 30.1 206.2 28.85 206.9 27.6 208.1 26.95 209.25 26.3 210.55 26.3 211.95 26.3 213.1 26.95 214.25 27.6 215 28.9
M 195.85 15.8
L 190.95 15.8 190.95 41.7 195.85 41.7 195.85 15.8
M 180 39.05
Q 180 40.3 180.85 41.1 181.7 41.9 183.05 41.95 184.35 41.9 185.15 41.1 186 40.3 186 39.05 186 37.85 185.15 37.05 184.35 36.25 183.05 36.2 181.7 36.25 180.85 37.05 180 37.85 180 39.05
M 176.55 22.05
Q 174.55 22.05 173.05 22.95 171.55 23.8 170.6 25.35
L 170.6 22.3 165.7 22.3 165.7 41.7 170.6 41.7 170.6 32.05
Q 170.6 30.2 171.2 29.1 171.75 28.05 172.75 27.6 173.8 27.15 175.25 27.15
L 176.55 27.15 176.55 22.05
M 159.95 22.3
L 155 22.3 155 25.05
Q 154.15 23.8 152.55 22.95 150.95 22.05 148.6 22 146.1 22 144.1 23.25 142.1 24.45 140.95 26.65 139.8 28.9 139.75 31.95 139.8 35 140.95 37.25 142.1 39.5 144.1 40.75 146.1 42 148.6 42 150.9 41.95 152.5 41.05 154.15 40.15 155 38.85
L 155 41.7 159.95 41.7 159.95 22.3
M 154.3 35.1
Q 153.55 36.4 152.4 37.05 151.25 37.7 149.85 37.7 148.55 37.7 147.4 37.05 146.2 36.35 145.5 35.05 144.8 33.75 144.75 31.95 144.8 30.1 145.5 28.85 146.2 27.6 147.4 26.95 148.55 26.3 149.85 26.3 151.25 26.3 152.4 26.95 153.55 27.6 154.3 28.9 155 30.15 155 32 155 33.85 154.3 35.1
M 127.2 22.3
L 124.85 22.3 124.85 26.35 127.2 26.35 127.2 35.7
Q 127.25 38.95 128.9 40.35 130.55 41.75 133.4 41.7
L 136.45 41.7 136.45 37.55 134.2 37.55
Q 133.05 37.6 132.6 37.1 132.1 36.7 132.1 35.7
L 132.1 26.35 136.45 26.35 136.45 22.3 132.1 22.3 132.1 17.5 127.2 17.5 127.2 22.3
M 109.3 22
Q 106.8 22 104.8 23.25 102.8 24.45 101.65 26.65 100.5 28.9 100.45 31.95 100.5 35 101.65 37.25 102.8 39.5 104.8 40.75 106.8 42 109.3 42 111.6 41.95 113.2 41.05 114.85 40.15 115.7 38.85
L 115.7 41.7 120.65 41.7 120.65 22.3 115.7 22.3 115.7 25.05
Q 114.85 23.8 113.25 22.95 111.65 22.05 109.3 22
M 115 35.1
Q 114.25 36.4 113.1 37.05 111.95 37.7 110.55 37.7 109.25 37.7 108.1 37.05 106.9 36.35 106.2 35.05 105.5 33.75 105.45 31.95 105.5 30.1 106.2 28.85 106.9 27.6 108.1 26.95 109.25 26.3 110.55 26.3 111.95 26.3 113.1 26.95 114.25 27.6 115 28.9 115.7 30.15 115.7 32 115.7 33.85 115 35.1
M 87.85 37.2
L 82.95 22.3 77.7 22.3 84.85 41.7 90.8 41.7 97.95 22.3 92.75 22.3 87.85 37.2
M 66.7 17.25
L 61 17.25 52.2 41.7 57.35 41.7 58.95 37.05 68.7 37.05 70.3 41.7 75.5 41.7 66.7 17.25
M 67.35 33.1
L 60.3 33.1 63.85 22.9 67.35 33.1 Z"/>
</g>

<path id="ICON_AMMO_0_Layer2_0_1_STROKES" stroke="#CC6600" stroke-width="5" stroke-linejoin="round" stroke-linecap="square" fill="none" d="
M -72.75 33.925
Q -80 18.4919921875 -80 0.05 -80 -33.1 -56.6 -56.55 -54.827734375 -58.322265625 -53 -59.95 -51.2900390625 -61.48359375 -49.525 -62.9 -28.3005859375 -80 0 -80 18.4951171875 -80 33.95 -72.725
M 72.725 -33.9
Q 80 -18.4345703125 80 0.05 80 33.2 56.6 56.6 33.2 80 0 80 -18.4375 80 -33.875 72.75"/>

<path id="p2_0_Layer0_0_1_STROKES" stroke="#75451D" stroke-width="10" stroke-linejoin="round" stroke-linecap="round" fill="none" d="
M -41.45 -39.95
L -7.95 -10.35
Q -7.3384765625 -11.443359375 -6.4 -12.4 -3.75 -15 0 -15
M -9 56.85
L -9 24.55 -9 -6
Q -9 -8.3962890625 -7.95 -10.35
M 0 -25
Q -3.75 -25 -6.4 -27.7 -9 -30.3 -9 -34 -9 -37.75 -6.4 -40.4 -3.75 -43 0 -43
M 0 24.55
L -9 24.55"/>

<path id="p1_0_Layer0_0_1_STROKES" stroke="#75451D" stroke-width="10" stroke-linejoin="round" stroke-linecap="round" fill="none" d="
M -48.7 -8.45
L -8.7 -8.45
Q -8.10625 -10.6609375 -6.4 -12.4 -3.75 -15 0 -15
M -31.25 48.4
L -9 24.55 -9 -6
Q -9 -7.2888671875 -8.7 -8.45
M 0 -25
Q -3.75 -25 -6.4 -27.7 -9 -30.3 -9 -34 -9 -37.75 -6.4 -40.4 -3.75 -43 0 -43
M 0 24.55
L -9 24.55"/>
</defs>

<g transform="matrix( 1, 0, 0, 1, 0,164.1) ">
<g transform="matrix( 1, 0, 0, 1, 0,0) ">
<use xlink:href="#Symbole_1444_0_Layer0_0_FILL"/>
</g>
</g>

<g transform="matrix( 1, 0, 0, 1, 150,90) ">
<g transform="matrix( 1, 0, 0, 1, 0,0) ">
<use xlink:href="#ICON_AMMO_0_Layer2_0_1_STROKES"/>
</g>

<g transform="matrix( 1, 0, 0, 1, 0,6.9) ">
<g transform="matrix( 1, 0, 0, 1, 0,-6.9) ">
<g transform="matrix( 1, 0, 0, 1, 0,0) ">
<g transform="matrix( 1, 0, 0, 1, 0,0) ">
<use filter="url(#Filter_1)" xlink:href="#p2_0_Layer0_0_1_STROKES"/>
</g>
</g>

<g transform="matrix( -1, 0, 0, 1, 0,0) ">
<g transform="matrix( 1, 0, 0, 1, 0,0) ">
<use filter="url(#Filter_1)" xlink:href="#p2_0_Layer0_0_1_STROKES"/>
</g>
</g>
</g>
</g>

<g transform="matrix( 1, 0, 0, 1, 0,0) ">
<g transform="matrix( 1, 0, 0, 1, 0,0) ">
<g transform="matrix( 1, 0, 0, 1, 0,0) ">
<use filter="url(#Filter_2)" xlink:href="#p1_0_Layer0_0_1_STROKES"/>
</g>
</g>

<g transform="matrix( -1, 0, 0, 1, 0,0) ">
<g transform="matrix( 1, 0, 0, 1, 0,0) ">
<use filter="url(#Filter_2)" xlink:href="#p1_0_Layer0_0_1_STROKES"/>
</g>
</g>
</g>
</g>
</svg>
